<svg xmlns="http://www.w3.org/2000/svg" width="24" height="15" viewBox="0 0 24 15">
<path d="M5.3012e-07 1.5C2.37343e-07 0.671573 0.671573 0 1.5 0H22.5C23.3284 0 24 0.671573 24 1.5V1.5C24 2.32843 23.3284 3 22.5 3H1.5C0.671574 3 8.22897e-07 2.32843 5.3012e-07 1.5V1.5Z"/>
<path d="M5.3012e-07 13.4999C2.37343e-07 12.6715 0.671573 11.9999 1.5 11.9999H22.5C23.3284 11.9999 24 12.6715 24 13.4999V13.4999C24 14.3284 23.3284 14.9999 22.5 14.9999H1.5C0.671574 14.9999 8.22897e-07 14.3284 5.3012e-07 13.4999V13.4999Z"/>
<path d="M5.3012e-07 7.49997C2.37343e-07 6.67154 0.671573 5.99997 1.5 5.99997H22.5C23.3284 5.99997 24 6.67154 24 7.49997V7.49997C24 8.3284 23.3284 8.99997 22.5 8.99997H1.5C0.671574 8.99997 8.22897e-07 8.3284 5.3012e-07 7.49997V7.49997Z"/>
</svg>
