<?xml version="1.0" standalone="no"?>
<!DOCTYPE svg PUBLIC "-//W3C//DTD SVG 20010904//EN"
 "http://www.w3.org/TR/2001/REC-SVG-20010904/DTD/svg10.dtd">
<svg version="1.0" xmlns="http://www.w3.org/2000/svg"
 width="928.000000pt" height="928.000000pt" viewBox="0 0 928.000000 928.000000"
 preserveAspectRatio="xMidYMid meet">
<metadata>
Created by potrace 1.14, written by Peter Selinger 2001-2017
</metadata>
<g transform="translate(0.000000,928.000000) scale(0.100000,-0.100000)"
fill="#000000" stroke="none">
<path d="M3475 7834 c-1496 -41 -2230 -98 -2540 -199 -147 -48 -305 -142 -428
-255 -120 -110 -248 -310 -300 -471 -85 -258 -140 -672 -189 -1409 -18 -266
-18 -1454 0 -1720 61 -914 127 -1318 257 -1569 138 -267 375 -470 658 -564
270 -91 816 -140 2077 -189 458 -18 2645 -18 3125 0 1021 38 1600 82 1925 148
413 84 744 373 874 764 185 560 265 2152 170 3410 -51 682 -127 1092 -241
1300 -170 311 -457 523 -803 594 -320 65 -868 108 -1880 147 -256 10 -2433 20
-2705 13z m1185 -2409 c525 -303 1044 -602 1153 -665 108 -63 197 -117 197
-120 0 -3 -188 -115 -417 -247 -230 -133 -749 -432 -1153 -665 -404 -234 -745
-430 -757 -437 l-23 -12 0 1361 0 1361 23 -12 c12 -7 452 -260 977 -564z"/>
</g>
</svg>
